<svg width="78" height="78" viewBox="0 0 78 78" fill="none" xmlns="http://www.w3.org/2000/svg">
<circle cx="39" cy="39" r="39" fill="#FF0000"/>
<path d="M38.5 23C30.8875 23 24 28.7274 24 37.5852C24 43.2414 28.4406 49.8937 37.3038 57.5598C37.9925 58.1467 39.0256 58.1467 39.7144 57.5598C48.5594 49.8937 53 43.2414 53 37.5852C53 28.7274 46.1125 23 38.5 23ZM38.5 40.7868C36.5062 40.7868 34.875 39.186 34.875 37.2295C34.875 35.2729 36.5062 33.6721 38.5 33.6721C40.4938 33.6721 42.125 35.2729 42.125 37.2295C42.125 39.186 40.4938 40.7868 38.5 40.7868Z" fill="white"/>
</svg>
