<svg width="78" height="78" viewBox="0 0 78 78" fill="none" xmlns="http://www.w3.org/2000/svg">
<path d="M78 39C78 60.5391 60.5391 78 39 78C17.4609 78 0 60.5391 0 39C0 17.4609 17.4609 0 39 0C60.5391 0 78 17.4609 78 39Z" fill="#FF0000"/>
<path d="M51 29H27C25.35 29 24.015 30.35 24.015 32L24 50C24 51.65 25.35 53 27 53H51C52.65 53 54 51.65 54 50V32C54 30.35 52.65 29 51 29ZM50.4 35.375L39.795 42.005C39.315 42.305 38.685 42.305 38.205 42.005L27.6 35.375C27.225 35.135 27 34.73 27 34.295C27 33.29 28.095 32.69 28.95 33.215L39 39.5L49.05 33.215C49.905 32.69 51 33.29 51 34.295C51 34.73 50.775 35.135 50.4 35.375Z" fill="white"/>
</svg>
