<svg width="78" height="78" viewBox="0 0 78 78" fill="none" xmlns="http://www.w3.org/2000/svg">
<circle cx="39" cy="39" r="39" fill="#FF0000"/>
<path d="M49.6485 45.3664L46.255 44.9789C45.44 44.8854 44.6384 45.166 44.0639 45.7405L41.6056 48.1987C37.8247 46.2749 34.7251 43.1886 32.8012 39.3943L35.2729 36.9227C35.8474 36.3482 36.1279 35.5465 36.0344 34.7316L35.647 31.3648C35.4866 30.0154 34.351 29 32.9883 29H30.677C29.1672 29 27.9114 30.2559 28.0049 31.7656C28.713 43.1753 37.838 52.287 49.2343 52.9951C50.744 53.0886 51.9999 51.8327 51.9999 50.323V48.0117C52.0132 46.6623 50.9979 45.5267 49.6485 45.3664V45.3664Z" fill="white"/>
</svg>
